<mxfile host="app.diagrams.net" modified="2023-03-21T02:38:47.984Z" agent="5.0 (Macintosh; Intel Mac OS X 10_15_7) AppleWebKit/537.36 (KHTML, like Gecko) Chrome/111.0.0.0 Safari/537.36" etag="suKeD-dFqU_lywqcS3gj" version="21.0.6" type="github">
  <diagram name="Page-1" id="03018318-947c-dd8e-b7a3-06fadd420f32">
    <mxGraphModel dx="1194" dy="565" grid="1" gridSize="10" guides="1" tooltips="1" connect="1" arrows="1" fold="1" page="1" pageScale="1" pageWidth="1100" pageHeight="850" background="#ffffff" math="0" shadow="0">
      <root>
        <mxCell id="0" />
        <mxCell id="1" parent="0" />
        <mxCell id="ASAHFyQOxQh7ivg2kSP8-1" value="" style="rounded=0;whiteSpace=wrap;html=1;" vertex="1" parent="1">
          <mxGeometry x="30" width="290" height="560" as="geometry" />
        </mxCell>
        <mxCell id="ASAHFyQOxQh7ivg2kSP8-2" value="订阅" style="ellipse;whiteSpace=wrap;html=1;aspect=fixed;fillColor=#fff2cc;strokeColor=#d6b656;flipH=1;" vertex="1" parent="1">
          <mxGeometry x="106" y="510" width="40" height="40" as="geometry" />
        </mxCell>
        <mxCell id="ASAHFyQOxQh7ivg2kSP8-3" value="推荐" style="ellipse;whiteSpace=wrap;html=1;aspect=fixed;flipH=1;" vertex="1" parent="1">
          <mxGeometry x="206" y="510" width="40" height="40" as="geometry" />
        </mxCell>
        <mxCell id="ASAHFyQOxQh7ivg2kSP8-5" value="" style="rounded=0;whiteSpace=wrap;html=1;" vertex="1" parent="1">
          <mxGeometry x="41" y="50" width="270" height="450" as="geometry" />
        </mxCell>
        <mxCell id="ASAHFyQOxQh7ivg2kSP8-6" value="科技" style="rounded=0;whiteSpace=wrap;html=1;" vertex="1" parent="1">
          <mxGeometry x="50" y="60" width="80" height="30" as="geometry" />
        </mxCell>
        <mxCell id="ASAHFyQOxQh7ivg2kSP8-7" value="" style="ellipse;whiteSpace=wrap;html=1;aspect=fixed;" vertex="1" parent="1">
          <mxGeometry x="56" y="110" width="30" height="30" as="geometry" />
        </mxCell>
        <mxCell id="ASAHFyQOxQh7ivg2kSP8-8" value="" style="ellipse;whiteSpace=wrap;html=1;aspect=fixed;" vertex="1" parent="1">
          <mxGeometry x="109" y="110" width="30" height="30" as="geometry" />
        </mxCell>
        <mxCell id="ASAHFyQOxQh7ivg2kSP8-9" value="" style="ellipse;whiteSpace=wrap;html=1;aspect=fixed;" vertex="1" parent="1">
          <mxGeometry x="161" y="110" width="30" height="30" as="geometry" />
        </mxCell>
        <mxCell id="ASAHFyQOxQh7ivg2kSP8-10" value="" style="ellipse;whiteSpace=wrap;html=1;aspect=fixed;" vertex="1" parent="1">
          <mxGeometry x="214" y="110" width="30" height="30" as="geometry" />
        </mxCell>
        <mxCell id="ASAHFyQOxQh7ivg2kSP8-11" value="" style="ellipse;whiteSpace=wrap;html=1;aspect=fixed;" vertex="1" parent="1">
          <mxGeometry x="266" y="110" width="30" height="30" as="geometry" />
        </mxCell>
        <mxCell id="ASAHFyQOxQh7ivg2kSP8-12" value="" style="ellipse;whiteSpace=wrap;html=1;aspect=fixed;" vertex="1" parent="1">
          <mxGeometry x="56" y="160" width="30" height="30" as="geometry" />
        </mxCell>
        <mxCell id="ASAHFyQOxQh7ivg2kSP8-13" value="" style="ellipse;whiteSpace=wrap;html=1;aspect=fixed;" vertex="1" parent="1">
          <mxGeometry x="109" y="160" width="30" height="30" as="geometry" />
        </mxCell>
        <mxCell id="ASAHFyQOxQh7ivg2kSP8-14" value="" style="ellipse;whiteSpace=wrap;html=1;aspect=fixed;" vertex="1" parent="1">
          <mxGeometry x="161" y="160" width="30" height="30" as="geometry" />
        </mxCell>
        <mxCell id="ASAHFyQOxQh7ivg2kSP8-28" value="娱乐" style="rounded=0;whiteSpace=wrap;html=1;" vertex="1" parent="1">
          <mxGeometry x="52" y="350" width="80" height="30" as="geometry" />
        </mxCell>
        <mxCell id="ASAHFyQOxQh7ivg2kSP8-29" value="" style="ellipse;whiteSpace=wrap;html=1;aspect=fixed;" vertex="1" parent="1">
          <mxGeometry x="58" y="400" width="30" height="30" as="geometry" />
        </mxCell>
        <mxCell id="ASAHFyQOxQh7ivg2kSP8-30" value="" style="ellipse;whiteSpace=wrap;html=1;aspect=fixed;" vertex="1" parent="1">
          <mxGeometry x="111" y="400" width="30" height="30" as="geometry" />
        </mxCell>
        <mxCell id="ASAHFyQOxQh7ivg2kSP8-31" value="" style="ellipse;whiteSpace=wrap;html=1;aspect=fixed;" vertex="1" parent="1">
          <mxGeometry x="163" y="400" width="30" height="30" as="geometry" />
        </mxCell>
        <mxCell id="ASAHFyQOxQh7ivg2kSP8-32" value="" style="ellipse;whiteSpace=wrap;html=1;aspect=fixed;" vertex="1" parent="1">
          <mxGeometry x="216" y="400" width="30" height="30" as="geometry" />
        </mxCell>
        <mxCell id="ASAHFyQOxQh7ivg2kSP8-33" value="" style="ellipse;whiteSpace=wrap;html=1;aspect=fixed;" vertex="1" parent="1">
          <mxGeometry x="268" y="400" width="30" height="30" as="geometry" />
        </mxCell>
        <mxCell id="ASAHFyQOxQh7ivg2kSP8-34" value="" style="ellipse;whiteSpace=wrap;html=1;aspect=fixed;" vertex="1" parent="1">
          <mxGeometry x="58" y="450" width="30" height="30" as="geometry" />
        </mxCell>
        <mxCell id="ASAHFyQOxQh7ivg2kSP8-35" value="" style="ellipse;whiteSpace=wrap;html=1;aspect=fixed;" vertex="1" parent="1">
          <mxGeometry x="111" y="450" width="30" height="30" as="geometry" />
        </mxCell>
        <mxCell id="ASAHFyQOxQh7ivg2kSP8-36" value="" style="ellipse;whiteSpace=wrap;html=1;aspect=fixed;" vertex="1" parent="1">
          <mxGeometry x="163" y="450" width="30" height="30" as="geometry" />
        </mxCell>
        <mxCell id="ASAHFyQOxQh7ivg2kSP8-37" value="生活" style="rounded=0;whiteSpace=wrap;html=1;" vertex="1" parent="1">
          <mxGeometry x="50" y="210" width="80" height="30" as="geometry" />
        </mxCell>
        <mxCell id="ASAHFyQOxQh7ivg2kSP8-38" value="" style="ellipse;whiteSpace=wrap;html=1;aspect=fixed;" vertex="1" parent="1">
          <mxGeometry x="56" y="260" width="30" height="30" as="geometry" />
        </mxCell>
        <mxCell id="ASAHFyQOxQh7ivg2kSP8-39" value="" style="ellipse;whiteSpace=wrap;html=1;aspect=fixed;" vertex="1" parent="1">
          <mxGeometry x="109" y="260" width="30" height="30" as="geometry" />
        </mxCell>
        <mxCell id="ASAHFyQOxQh7ivg2kSP8-40" value="" style="ellipse;whiteSpace=wrap;html=1;aspect=fixed;" vertex="1" parent="1">
          <mxGeometry x="161" y="260" width="30" height="30" as="geometry" />
        </mxCell>
        <mxCell id="ASAHFyQOxQh7ivg2kSP8-41" value="" style="ellipse;whiteSpace=wrap;html=1;aspect=fixed;" vertex="1" parent="1">
          <mxGeometry x="214" y="260" width="30" height="30" as="geometry" />
        </mxCell>
        <mxCell id="ASAHFyQOxQh7ivg2kSP8-42" value="" style="ellipse;whiteSpace=wrap;html=1;aspect=fixed;" vertex="1" parent="1">
          <mxGeometry x="266" y="260" width="30" height="30" as="geometry" />
        </mxCell>
        <mxCell id="ASAHFyQOxQh7ivg2kSP8-43" value="" style="ellipse;whiteSpace=wrap;html=1;aspect=fixed;" vertex="1" parent="1">
          <mxGeometry x="56" y="310" width="30" height="30" as="geometry" />
        </mxCell>
        <mxCell id="ASAHFyQOxQh7ivg2kSP8-44" value="" style="ellipse;whiteSpace=wrap;html=1;aspect=fixed;" vertex="1" parent="1">
          <mxGeometry x="109" y="310" width="30" height="30" as="geometry" />
        </mxCell>
        <mxCell id="ASAHFyQOxQh7ivg2kSP8-45" value="" style="ellipse;whiteSpace=wrap;html=1;aspect=fixed;" vertex="1" parent="1">
          <mxGeometry x="161" y="310" width="30" height="30" as="geometry" />
        </mxCell>
        <mxCell id="ASAHFyQOxQh7ivg2kSP8-46" value="" style="rounded=0;whiteSpace=wrap;html=1;" vertex="1" parent="1">
          <mxGeometry x="370" y="30" width="290" height="530" as="geometry" />
        </mxCell>
        <mxCell id="ASAHFyQOxQh7ivg2kSP8-47" value="订阅" style="ellipse;whiteSpace=wrap;html=1;aspect=fixed;" vertex="1" parent="1">
          <mxGeometry x="446" y="510" width="40" height="40" as="geometry" />
        </mxCell>
        <mxCell id="ASAHFyQOxQh7ivg2kSP8-48" value="推荐" style="ellipse;whiteSpace=wrap;html=1;aspect=fixed;fillColor=#fff2cc;strokeColor=#d6b656;" vertex="1" parent="1">
          <mxGeometry x="546" y="510" width="40" height="40" as="geometry" />
        </mxCell>
        <mxCell id="ASAHFyQOxQh7ivg2kSP8-50" value="" style="rounded=0;whiteSpace=wrap;html=1;" vertex="1" parent="1">
          <mxGeometry x="381" y="50" width="270" height="450" as="geometry" />
        </mxCell>
        <mxCell id="ASAHFyQOxQh7ivg2kSP8-51" value="科技" style="rounded=0;whiteSpace=wrap;html=1;fillColor=#fff2cc;strokeColor=#d6b656;" vertex="1" parent="1">
          <mxGeometry x="395" y="60" width="60" height="30" as="geometry" />
        </mxCell>
        <mxCell id="ASAHFyQOxQh7ivg2kSP8-57" value="生活" style="rounded=0;whiteSpace=wrap;html=1;" vertex="1" parent="1">
          <mxGeometry x="485" y="60" width="60" height="30" as="geometry" />
        </mxCell>
        <mxCell id="ASAHFyQOxQh7ivg2kSP8-58" value="娱乐" style="rounded=0;whiteSpace=wrap;html=1;" vertex="1" parent="1">
          <mxGeometry x="575" y="60" width="60" height="30" as="geometry" />
        </mxCell>
        <mxCell id="ASAHFyQOxQh7ivg2kSP8-61" value="" style="rounded=1;whiteSpace=wrap;html=1;" vertex="1" parent="1">
          <mxGeometry x="390" y="110" width="250" height="60" as="geometry" />
        </mxCell>
        <mxCell id="ASAHFyQOxQh7ivg2kSP8-62" value="少数派" style="ellipse;whiteSpace=wrap;html=1;aspect=fixed;" vertex="1" parent="1">
          <mxGeometry x="395" y="115" width="50" height="50" as="geometry" />
        </mxCell>
        <mxCell id="ASAHFyQOxQh7ivg2kSP8-63" value="添加" style="rounded=0;whiteSpace=wrap;html=1;" vertex="1" parent="1">
          <mxGeometry x="575" y="117.5" width="60" height="45" as="geometry" />
        </mxCell>
        <mxCell id="ASAHFyQOxQh7ivg2kSP8-64" value="" style="rounded=1;whiteSpace=wrap;html=1;" vertex="1" parent="1">
          <mxGeometry x="390" y="190" width="250" height="60" as="geometry" />
        </mxCell>
        <mxCell id="ASAHFyQOxQh7ivg2kSP8-65" value="知乎" style="ellipse;whiteSpace=wrap;html=1;aspect=fixed;" vertex="1" parent="1">
          <mxGeometry x="395" y="195" width="50" height="50" as="geometry" />
        </mxCell>
        <mxCell id="ASAHFyQOxQh7ivg2kSP8-66" value="添加" style="rounded=0;whiteSpace=wrap;html=1;" vertex="1" parent="1">
          <mxGeometry x="575" y="197.5" width="60" height="45" as="geometry" />
        </mxCell>
        <mxCell id="ASAHFyQOxQh7ivg2kSP8-67" value="" style="rounded=1;whiteSpace=wrap;html=1;" vertex="1" parent="1">
          <mxGeometry x="391" y="270" width="250" height="60" as="geometry" />
        </mxCell>
        <mxCell id="ASAHFyQOxQh7ivg2kSP8-68" value="豆瓣" style="ellipse;whiteSpace=wrap;html=1;aspect=fixed;" vertex="1" parent="1">
          <mxGeometry x="396" y="275" width="50" height="50" as="geometry" />
        </mxCell>
        <mxCell id="ASAHFyQOxQh7ivg2kSP8-69" value="添加" style="rounded=0;whiteSpace=wrap;html=1;" vertex="1" parent="1">
          <mxGeometry x="576" y="277.5" width="60" height="45" as="geometry" />
        </mxCell>
        <mxCell id="ASAHFyQOxQh7ivg2kSP8-75" value="RSSSUB" style="rounded=0;whiteSpace=wrap;html=1;" vertex="1" parent="1">
          <mxGeometry x="41" y="10" width="69" height="30" as="geometry" />
        </mxCell>
        <mxCell id="ASAHFyQOxQh7ivg2kSP8-76" value="添加" style="ellipse;whiteSpace=wrap;html=1;aspect=fixed;" vertex="1" parent="1">
          <mxGeometry x="268" y="5" width="35" height="35" as="geometry" />
        </mxCell>
        <mxCell id="ASAHFyQOxQh7ivg2kSP8-77" value="刷新" style="ellipse;whiteSpace=wrap;html=1;aspect=fixed;" vertex="1" parent="1">
          <mxGeometry x="220" y="5" width="35" height="35" as="geometry" />
        </mxCell>
        <mxCell id="ASAHFyQOxQh7ivg2kSP8-78" value="1" style="ellipse;whiteSpace=wrap;html=1;aspect=fixed;fillColor=#f8cecc;strokeColor=#b85450;" vertex="1" parent="1">
          <mxGeometry x="80" y="110" width="10" height="10" as="geometry" />
        </mxCell>
        <mxCell id="ASAHFyQOxQh7ivg2kSP8-80" value="" style="rounded=0;whiteSpace=wrap;html=1;" vertex="1" parent="1">
          <mxGeometry x="31" y="680" width="288" height="475" as="geometry" />
        </mxCell>
        <mxCell id="ASAHFyQOxQh7ivg2kSP8-81" value="" style="rounded=0;whiteSpace=wrap;html=1;" vertex="1" parent="1">
          <mxGeometry x="40" y="735" width="269" height="100" as="geometry" />
        </mxCell>
        <mxCell id="ASAHFyQOxQh7ivg2kSP8-82" value="标题" style="rounded=0;whiteSpace=wrap;html=1;align=left;" vertex="1" parent="1">
          <mxGeometry x="49" y="745" width="160" height="20" as="geometry" />
        </mxCell>
        <mxCell id="ASAHFyQOxQh7ivg2kSP8-83" value="" style="rounded=0;whiteSpace=wrap;html=1;" vertex="1" parent="1">
          <mxGeometry x="215" y="750" width="84" height="70" as="geometry" />
        </mxCell>
        <mxCell id="ASAHFyQOxQh7ivg2kSP8-84" value="内容" style="rounded=0;whiteSpace=wrap;html=1;align=left;" vertex="1" parent="1">
          <mxGeometry x="49" y="769" width="160" height="36" as="geometry" />
        </mxCell>
        <mxCell id="ASAHFyQOxQh7ivg2kSP8-85" value="日期" style="rounded=0;whiteSpace=wrap;html=1;align=left;" vertex="1" parent="1">
          <mxGeometry x="49" y="809" width="30" height="20" as="geometry" />
        </mxCell>
        <mxCell id="ASAHFyQOxQh7ivg2kSP8-91" value="" style="rounded=0;whiteSpace=wrap;html=1;" vertex="1" parent="1">
          <mxGeometry x="40" y="955" width="269" height="100" as="geometry" />
        </mxCell>
        <mxCell id="ASAHFyQOxQh7ivg2kSP8-92" value="标题" style="rounded=0;whiteSpace=wrap;html=1;align=left;" vertex="1" parent="1">
          <mxGeometry x="49" y="965" width="160" height="20" as="geometry" />
        </mxCell>
        <mxCell id="ASAHFyQOxQh7ivg2kSP8-93" value="" style="rounded=0;whiteSpace=wrap;html=1;" vertex="1" parent="1">
          <mxGeometry x="215" y="970" width="84" height="70" as="geometry" />
        </mxCell>
        <mxCell id="ASAHFyQOxQh7ivg2kSP8-94" value="内容" style="rounded=0;whiteSpace=wrap;html=1;align=left;" vertex="1" parent="1">
          <mxGeometry x="49" y="989" width="160" height="36" as="geometry" />
        </mxCell>
        <mxCell id="ASAHFyQOxQh7ivg2kSP8-95" value="日期" style="rounded=0;whiteSpace=wrap;html=1;align=left;" vertex="1" parent="1">
          <mxGeometry x="49" y="1029" width="30" height="20" as="geometry" />
        </mxCell>
        <mxCell id="ASAHFyQOxQh7ivg2kSP8-96" value="" style="rounded=0;whiteSpace=wrap;html=1;" vertex="1" parent="1">
          <mxGeometry x="40" y="849" width="269" height="100" as="geometry" />
        </mxCell>
        <mxCell id="ASAHFyQOxQh7ivg2kSP8-97" value="标题" style="rounded=0;whiteSpace=wrap;html=1;align=left;" vertex="1" parent="1">
          <mxGeometry x="49" y="859" width="160" height="20" as="geometry" />
        </mxCell>
        <mxCell id="ASAHFyQOxQh7ivg2kSP8-98" value="" style="rounded=0;whiteSpace=wrap;html=1;" vertex="1" parent="1">
          <mxGeometry x="215" y="864" width="84" height="70" as="geometry" />
        </mxCell>
        <mxCell id="ASAHFyQOxQh7ivg2kSP8-99" value="内容" style="rounded=0;whiteSpace=wrap;html=1;align=left;" vertex="1" parent="1">
          <mxGeometry x="49" y="883" width="160" height="36" as="geometry" />
        </mxCell>
        <mxCell id="ASAHFyQOxQh7ivg2kSP8-100" value="日期" style="rounded=0;whiteSpace=wrap;html=1;align=left;" vertex="1" parent="1">
          <mxGeometry x="49" y="923" width="30" height="20" as="geometry" />
        </mxCell>
        <mxCell id="ASAHFyQOxQh7ivg2kSP8-101" value="少数派" style="ellipse;whiteSpace=wrap;html=1;aspect=fixed;flipH=1;" vertex="1" parent="1">
          <mxGeometry x="40" y="1095" width="50" height="50" as="geometry" />
        </mxCell>
        <mxCell id="ASAHFyQOxQh7ivg2kSP8-102" value="知乎" style="ellipse;whiteSpace=wrap;html=1;aspect=fixed;flipH=1;" vertex="1" parent="1">
          <mxGeometry x="97" y="1095" width="50" height="50" as="geometry" />
        </mxCell>
        <mxCell id="ASAHFyQOxQh7ivg2kSP8-103" value="豆瓣" style="ellipse;whiteSpace=wrap;html=1;aspect=fixed;flipH=1;" vertex="1" parent="1">
          <mxGeometry x="155" y="1095" width="50" height="50" as="geometry" />
        </mxCell>
        <mxCell id="ASAHFyQOxQh7ivg2kSP8-104" value="" style="ellipse;whiteSpace=wrap;html=1;aspect=fixed;flipH=1;" vertex="1" parent="1">
          <mxGeometry x="212" y="1095" width="50" height="50" as="geometry" />
        </mxCell>
        <mxCell id="ASAHFyQOxQh7ivg2kSP8-105" value="" style="ellipse;whiteSpace=wrap;html=1;aspect=fixed;flipH=1;" vertex="1" parent="1">
          <mxGeometry x="269" y="1095" width="50" height="50" as="geometry" />
        </mxCell>
        <mxCell id="ASAHFyQOxQh7ivg2kSP8-106" value="" style="rounded=0;whiteSpace=wrap;html=1;" vertex="1" parent="1">
          <mxGeometry x="371" y="680" width="264" height="480" as="geometry" />
        </mxCell>
        <mxCell id="ASAHFyQOxQh7ivg2kSP8-107" value="" style="ellipse;whiteSpace=wrap;html=1;aspect=fixed;" vertex="1" parent="1">
          <mxGeometry x="380" y="735" width="40" height="40" as="geometry" />
        </mxCell>
        <mxCell id="ASAHFyQOxQh7ivg2kSP8-108" value="少数派" style="rounded=0;whiteSpace=wrap;html=1;" vertex="1" parent="1">
          <mxGeometry x="423.5" y="742.5" width="61.5" height="25" as="geometry" />
        </mxCell>
        <mxCell id="ASAHFyQOxQh7ivg2kSP8-109" value="3月21日" style="rounded=0;whiteSpace=wrap;html=1;" vertex="1" parent="1">
          <mxGeometry x="569" y="743.75" width="60" height="22.5" as="geometry" />
        </mxCell>
        <mxCell id="ASAHFyQOxQh7ivg2kSP8-111" value="" style="rounded=0;whiteSpace=wrap;html=1;" vertex="1" parent="1">
          <mxGeometry x="380" y="785" width="249" height="370" as="geometry" />
        </mxCell>
        <mxCell id="ASAHFyQOxQh7ivg2kSP8-114" value="" style="shape=singleArrow;direction=west;whiteSpace=wrap;html=1;" vertex="1" parent="1">
          <mxGeometry x="39" y="690" width="21" height="35" as="geometry" />
        </mxCell>
        <mxCell id="ASAHFyQOxQh7ivg2kSP8-115" value="" style="shape=singleArrow;direction=west;whiteSpace=wrap;html=1;" vertex="1" parent="1">
          <mxGeometry x="381" y="690" width="21" height="35" as="geometry" />
        </mxCell>
      </root>
    </mxGraphModel>
  </diagram>
</mxfile>
